<svg width="562" height="307" viewBox="0 0 562 307" fill="none" xmlns="http://www.w3.org/2000/svg">
  <g opacity="0.3" filter="url(#filter0_f_392_127)">
    <path
      d="M166.443 295.191C165.238 295.191 164.298 294.918 163.622 294.372C162.946 293.826 162.604 293.011 162.595 291.928H163.726C163.752 293.444 164.658 294.203 166.443 294.203C167.197 294.203 167.773 294.055 168.172 293.761C168.579 293.466 168.783 293.037 168.783 292.474C168.783 292.032 168.614 291.689 168.276 291.447C167.947 291.195 167.366 290.979 166.534 290.797L165.715 290.615C164.779 290.398 164.077 290.086 163.609 289.679C163.141 289.263 162.907 288.682 162.907 287.937C162.907 287.2 163.193 286.615 163.765 286.182C164.337 285.74 165.104 285.519 166.066 285.519C166.716 285.519 167.279 285.597 167.756 285.753C168.241 285.909 168.618 286.13 168.887 286.416C169.156 286.693 169.351 286.996 169.472 287.326C169.602 287.655 169.671 288.019 169.68 288.418H168.562C168.51 287.759 168.293 287.278 167.912 286.975C167.539 286.663 166.924 286.507 166.066 286.507C165.416 286.507 164.913 286.632 164.558 286.884C164.211 287.135 164.038 287.486 164.038 287.937C164.038 288.387 164.19 288.738 164.493 288.99C164.788 289.241 165.36 289.462 166.209 289.653L167.028 289.835C168.051 290.06 168.787 290.385 169.238 290.81C169.689 291.226 169.914 291.78 169.914 292.474C169.914 293.314 169.606 293.977 168.991 294.463C168.376 294.948 167.526 295.191 166.443 295.191ZM177.339 289.705V285.727H178.431V294.983H177.339V290.719H172.178V294.983H171.086V285.727H172.178V289.705H177.339ZM181.217 294.983H180.125V285.727H181.217V294.983ZM189.029 285.727V286.715H183.998V289.666H188.509V290.654H183.998V294.983H182.906V285.727H189.029ZM189.544 285.727H196.967V286.715H193.821V294.983H192.69V286.715H189.544V285.727ZM199.041 294.983H197.949V285.727H199.041V294.983ZM207.009 288.847V285.727H208.088V294.983H206.762L203.694 290.212C202.81 288.808 202.168 287.763 201.77 287.079C201.796 288.292 201.809 289.887 201.809 291.863V294.983H200.73V285.727H202.056L205.124 290.498C206.008 291.902 206.649 292.946 207.048 293.631C207.022 292.417 207.009 290.823 207.009 288.847ZM213.994 291.213V290.225H217.933V294.983H217.036L216.802 293.735C216.117 294.705 215.107 295.191 213.773 295.191C212.447 295.191 211.389 294.744 210.601 293.852C209.795 292.968 209.392 291.802 209.392 290.355C209.392 288.916 209.79 287.746 210.588 286.845C211.376 285.961 212.442 285.519 213.786 285.519C214.886 285.519 215.796 285.813 216.516 286.403C217.235 286.992 217.673 287.776 217.829 288.756H216.698C216.585 288.071 216.256 287.525 215.71 287.118C215.181 286.719 214.54 286.52 213.786 286.52C212.798 286.52 212.009 286.866 211.42 287.56C210.83 288.253 210.536 289.185 210.536 290.355C210.536 291.525 210.83 292.456 211.42 293.15C212.009 293.843 212.798 294.19 213.786 294.19C214.661 294.19 215.406 293.908 216.022 293.345C216.637 292.781 216.945 292.071 216.945 291.213H213.994ZM225.362 295.191C224.157 295.191 223.217 294.918 222.541 294.372C221.865 293.826 221.523 293.011 221.514 291.928H222.645C222.671 293.444 223.577 294.203 225.362 294.203C226.116 294.203 226.692 294.055 227.091 293.761C227.498 293.466 227.702 293.037 227.702 292.474C227.702 292.032 227.533 291.689 227.195 291.447C226.866 291.195 226.285 290.979 225.453 290.797L224.634 290.615C223.698 290.398 222.996 290.086 222.528 289.679C222.06 289.263 221.826 288.682 221.826 287.937C221.826 287.2 222.112 286.615 222.684 286.182C223.256 285.74 224.023 285.519 224.985 285.519C225.635 285.519 226.198 285.597 226.675 285.753C227.16 285.909 227.537 286.13 227.806 286.416C228.075 286.693 228.27 286.996 228.391 287.326C228.521 287.655 228.59 288.019 228.599 288.418H227.481C227.429 287.759 227.212 287.278 226.831 286.975C226.458 286.663 225.843 286.507 224.985 286.507C224.335 286.507 223.832 286.632 223.477 286.884C223.13 287.135 222.957 287.486 222.957 287.937C222.957 288.387 223.109 288.738 223.412 288.99C223.707 289.241 224.279 289.462 225.128 289.653L225.947 289.835C226.97 290.06 227.706 290.385 228.157 290.81C228.608 291.226 228.833 291.78 228.833 292.474C228.833 293.314 228.525 293.977 227.91 294.463C227.295 294.948 226.445 295.191 225.362 295.191ZM233.892 295.191C232.635 295.191 231.608 294.753 230.811 293.878C230.014 293.002 229.615 291.828 229.615 290.355C229.615 288.881 230.014 287.707 230.811 286.832C231.608 285.956 232.635 285.519 233.892 285.519C234.889 285.519 235.738 285.792 236.44 286.338C237.142 286.875 237.606 287.664 237.831 288.704H236.726C236.336 287.248 235.391 286.52 233.892 286.52C232.947 286.52 232.189 286.858 231.617 287.534C231.045 288.218 230.759 289.159 230.759 290.355C230.759 291.551 231.045 292.487 231.617 293.163C232.189 293.847 232.947 294.19 233.892 294.19C234.603 294.19 235.235 293.969 235.79 293.527C236.336 293.102 236.67 292.465 236.791 291.616H237.883C237.762 292.768 237.324 293.648 236.57 294.255C235.807 294.879 234.915 295.191 233.892 295.191ZM246.608 294.983H245.451L244.372 292.292H240.16L239.094 294.983H237.95L241.642 285.727H242.864L246.608 294.983ZM240.589 291.2L240.55 291.304H243.982L243.93 291.187C243.713 290.658 243.15 289.232 242.24 286.91C241.625 288.556 241.074 289.986 240.589 291.2ZM248.49 285.727V293.995H253.144V294.983H247.398V285.727H248.49ZM260.688 285.727V286.715H255.345V289.666H260.168V290.654H255.345V293.995H260.636V294.983H254.253V285.727H260.688ZM265.187 295.191C263.983 295.191 263.042 294.918 262.366 294.372C261.69 293.826 261.348 293.011 261.339 291.928H262.47C262.496 293.444 263.402 294.203 265.187 294.203C265.941 294.203 266.518 294.055 266.916 293.761C267.324 293.466 267.527 293.037 267.527 292.474C267.527 292.032 267.358 291.689 267.02 291.447C266.691 291.195 266.11 290.979 265.278 290.797L264.459 290.615C263.523 290.398 262.821 290.086 262.353 289.679C261.885 289.263 261.651 288.682 261.651 287.937C261.651 287.2 261.937 286.615 262.509 286.182C263.081 285.74 263.848 285.519 264.81 285.519C265.46 285.519 266.024 285.597 266.5 285.753C266.986 285.909 267.363 286.13 267.631 286.416C267.9 286.693 268.095 286.996 268.216 287.326C268.346 287.655 268.416 288.019 268.424 288.418H267.306C267.254 287.759 267.038 287.278 266.656 286.975C266.284 286.663 265.668 286.507 264.81 286.507C264.16 286.507 263.658 286.632 263.302 286.884C262.956 287.135 262.782 287.486 262.782 287.937C262.782 288.387 262.934 288.738 263.237 288.99C263.532 289.241 264.104 289.462 264.953 289.653L265.772 289.835C266.795 290.06 267.532 290.385 267.982 290.81C268.433 291.226 268.658 291.78 268.658 292.474C268.658 293.314 268.351 293.977 267.735 294.463C267.12 294.948 266.271 295.191 265.187 295.191ZM273.398 294.983H272.306V285.727H273.398V294.983ZM281.365 288.847V285.727H282.444V294.983H281.118L278.05 290.212C277.166 288.808 276.525 287.763 276.126 287.079C276.152 288.292 276.165 289.887 276.165 291.863V294.983H275.086V285.727H276.412L279.48 290.498C280.364 291.902 281.006 292.946 281.404 293.631C281.378 292.417 281.365 290.823 281.365 288.847ZM294.622 294.983H293.465L292.386 292.292H288.174L287.108 294.983H285.964L289.656 285.727H290.878L294.622 294.983ZM288.603 291.2L288.564 291.304H291.996L291.944 291.187C291.727 290.658 291.164 289.232 290.254 286.91C289.638 288.556 289.088 289.986 288.603 291.2ZM304.394 289.705V285.727H305.486V294.983H304.394V290.719H299.233V294.983H298.141V285.727H299.233V289.705H304.394ZM313.615 285.727V286.715H308.272V289.666H313.095V290.654H308.272V293.995H313.563V294.983H307.18V285.727H313.615ZM322.602 294.983H321.445L320.366 292.292H316.154L315.088 294.983H313.944L317.636 285.727H318.858L322.602 294.983ZM316.583 291.2L316.544 291.304H319.976L319.924 291.187C319.707 290.658 319.144 289.232 318.234 286.91C317.619 288.556 317.068 289.986 316.583 291.2ZM321.182 285.727H328.605V286.715H325.459V294.983H324.328V286.715H321.182V285.727ZM330.679 294.983H329.587V285.727H330.679V294.983ZM338.646 288.847V285.727H339.725V294.983H338.399L335.331 290.212C334.447 288.808 333.806 287.763 333.407 287.079C333.433 288.292 333.446 289.887 333.446 291.863V294.983H332.367V285.727H333.693L336.761 290.498C337.645 291.902 338.287 292.946 338.685 293.631C338.659 292.417 338.646 290.823 338.646 288.847ZM345.631 291.213V290.225H349.57V294.983H348.673L348.439 293.735C347.755 294.705 346.745 295.191 345.41 295.191C344.084 295.191 343.027 294.744 342.238 293.852C341.432 292.968 341.029 291.802 341.029 290.355C341.029 288.916 341.428 287.746 342.225 286.845C343.014 285.961 344.08 285.519 345.423 285.519C346.524 285.519 347.434 285.813 348.153 286.403C348.873 286.992 349.31 287.776 349.466 288.756H348.335C348.223 288.071 347.893 287.525 347.347 287.118C346.819 286.719 346.177 286.52 345.423 286.52C344.435 286.52 343.647 286.866 343.057 287.56C342.468 288.253 342.173 289.185 342.173 290.355C342.173 291.525 342.468 292.456 343.057 293.15C343.647 293.843 344.435 294.19 345.423 294.19C346.299 294.19 347.044 293.908 347.659 293.345C348.275 292.781 348.582 292.071 348.582 291.213H345.631ZM362.603 290.29L363.864 285.727H364.995L362.369 294.983H361.147L359.821 290.264C359.448 288.929 359.166 287.885 358.976 287.131C358.785 287.885 358.503 288.929 358.131 290.264L356.805 294.983H355.583L352.957 285.727H354.088L355.349 290.29C355.747 291.702 356.038 292.807 356.22 293.605C356.523 292.443 356.818 291.33 357.104 290.264L358.365 285.727H359.587L360.848 290.264C361.142 291.33 361.437 292.443 361.732 293.605C361.914 292.807 362.204 291.702 362.603 290.29ZM372.909 293.852C372.094 294.744 371.02 295.191 369.685 295.191C368.35 295.191 367.28 294.744 366.474 293.852C365.659 292.976 365.252 291.811 365.252 290.355C365.252 288.907 365.659 287.737 366.474 286.845C367.28 285.961 368.35 285.519 369.685 285.519C371.02 285.519 372.094 285.961 372.909 286.845C373.715 287.746 374.118 288.916 374.118 290.355C374.118 291.802 373.715 292.968 372.909 293.852ZM367.293 293.15C367.891 293.843 368.688 294.19 369.685 294.19C370.682 294.19 371.479 293.843 372.077 293.15C372.675 292.465 372.974 291.533 372.974 290.355C372.974 289.176 372.675 288.244 372.077 287.56C371.479 286.866 370.682 286.52 369.685 286.52C368.688 286.52 367.891 286.866 367.293 287.56C366.695 288.244 366.396 289.176 366.396 290.355C366.396 291.533 366.695 292.465 367.293 293.15ZM382.216 292.305L382.307 293.8C382.351 294.32 382.463 294.714 382.645 294.983H381.514C381.324 294.705 381.224 294.294 381.215 293.748L381.176 292.76C381.15 292.136 381.012 291.694 380.76 291.434C380.509 291.165 380.097 291.031 379.525 291.031H376.509V294.983H375.417V285.727H379.33C380.284 285.727 381.042 285.948 381.605 286.39C382.177 286.832 382.463 287.451 382.463 288.249C382.463 288.812 382.325 289.289 382.047 289.679C381.779 290.06 381.41 290.329 380.942 290.485C381.722 290.727 382.147 291.334 382.216 292.305ZM376.509 290.043H379.46C380.041 290.043 380.496 289.895 380.825 289.601C381.163 289.297 381.332 288.868 381.332 288.314C381.332 287.785 381.155 287.386 380.799 287.118C380.453 286.849 379.963 286.715 379.33 286.715H376.509V290.043ZM384.914 285.727V293.995H389.568V294.983H383.822V285.727H384.914ZM390.677 285.727H393.797C395.201 285.727 396.31 286.134 397.125 286.949C397.931 287.763 398.334 288.899 398.334 290.355C398.334 291.793 397.931 292.924 397.125 293.748C396.302 294.571 395.192 294.983 393.797 294.983H390.677V285.727ZM391.769 293.995H393.797C394.889 293.995 395.725 293.674 396.306 293.033C396.895 292.391 397.19 291.499 397.19 290.355C397.19 289.211 396.895 288.318 396.306 287.677C395.725 287.035 394.889 286.715 393.797 286.715H391.769V293.995Z"
      fill="black" />
    <path
      d="M126.962 72.5809V12.5355C126.962 11.9675 127.438 11.585 128.006 11.585H128.388C129.049 11.585 129.339 11.8748 129.721 12.5355L153.612 52.5967L177.584 12.5355C177.966 11.8748 178.244 11.585 178.917 11.585H179.299C179.867 11.585 180.25 11.9675 180.25 12.5355V72.5809C180.25 73.0561 180.064 73.3459 179.682 73.3459H179.392C179.009 73.3459 178.824 73.0561 178.824 72.5809V13.3005L154.945 53.1762C154.759 53.6515 154.284 54.034 153.612 54.034C152.939 54.034 152.569 53.6515 152.371 53.1762L128.481 13.3005V72.5809C128.481 73.0561 128.295 73.3459 127.913 73.3459H127.53C127.148 73.3459 126.962 73.0561 126.962 72.5809Z"
      fill="#171717" />
    <path
      d="M217.239 12.2575C217.424 11.7822 217.714 11.4924 218.386 11.4924C219.151 11.4924 219.43 11.7822 219.627 12.2575L244.561 72.8709C244.468 73.3461 243.32 73.8214 242.66 72.3956L233.328 49.5598H203.549L194.125 72.3956C193.557 73.9141 192.409 73.3461 192.316 72.8709L217.239 12.2575ZM232.749 48.2268L218.386 13.1153L204.013 48.2268H232.749Z"
      fill="#171717" />
    <path
      d="M253.185 42.6052C253.185 24.6147 265.078 11.0176 282.964 11.0176C292.098 11.0176 297.999 14.2517 301.708 17.9611C304.56 20.8126 306.09 24.4293 306.09 25.6696C306.09 26.4346 305.429 26.6201 305.139 26.5274C303.145 19.5839 296.098 12.3506 282.964 12.3506C265.936 12.3506 254.703 25.3914 254.703 42.6168C254.703 59.8421 265.46 72.5931 283.254 72.5931C298.856 72.5931 304.374 63.169 305.811 57.2688C305.997 57.2688 306.762 57.4542 306.762 58.1266C306.762 59.2741 305.522 63.5515 301.627 67.4463C298.3 70.7732 292.017 73.9146 283.161 73.9146C264.51 73.9146 253.185 60.5956 253.185 42.6052Z"
      fill="#171717" />
    <path
      d="M332.612 45.8519L361.545 72.5014C361.731 72.6868 361.36 73.3592 360.78 73.3592C360.49 73.3592 360.119 73.1737 359.632 72.6984L330.699 45.8635H322.898V72.6057C322.898 73.081 322.713 73.3708 322.33 73.3708H322.04C321.658 73.3708 321.38 73.081 321.38 72.6057V13.1167C321.38 12.1662 321.762 11.6909 322.805 11.6909H338.883C353.442 11.6909 360.861 17.8809 360.861 28.7192C360.861 39.5575 353.442 45.8519 339.266 45.8519H332.6H332.612ZM339.173 44.6116C352.596 44.6116 359.25 38.6186 359.25 28.7192C359.25 18.8199 352.492 13.0124 338.883 13.0124H322.898V44.6116H339.173Z"
      fill="#171717" />
    <path
      d="M404.237 76.3488C422.278 76.3488 436.903 61.7239 436.903 43.6832C436.903 25.6425 422.278 11.0176 404.237 11.0176C386.197 11.0176 371.572 25.6425 371.572 43.6832C371.572 61.7239 386.197 76.3488 404.237 76.3488Z"
      fill="#171717" />
    <path
      d="M128.527 249.49C125.769 246.824 125.096 243.879 125.096 242.824C125.096 242.059 125.664 241.781 126.047 241.781C126.812 246.916 132.515 254.15 146.414 254.15C157.356 254.15 164.775 248.249 164.775 239.301C164.775 228.833 155.733 226.457 145.741 224.081C135.749 221.704 126.522 219.224 126.522 208.571C126.522 198.764 134.613 192.586 145.266 192.586C153.067 192.586 158.11 195.055 161.158 198.103C163.256 200.201 164.392 202.763 164.392 203.911C164.392 204.572 163.732 204.954 163.349 204.954C162.109 199.912 156.881 193.919 145.266 193.919C135.459 193.919 128.041 199.436 128.041 208.571C128.041 217.705 136.514 220.464 146.402 222.747C156.684 225.031 166.293 227.79 166.293 239.301C166.293 248.91 158.202 255.483 146.402 255.483C137.557 255.483 131.935 252.909 128.516 249.49H128.527Z"
      fill="#171717" />
    <path
      d="M174.86 224.173C174.86 206.183 186.753 192.586 204.639 192.586C213.773 192.586 219.674 195.82 223.383 199.529C226.235 202.381 227.765 205.997 227.765 207.238C227.765 208.003 227.104 208.188 226.814 208.095C224.82 201.152 217.773 193.919 204.639 193.919C187.611 193.919 176.378 206.959 176.378 224.185C176.378 241.41 187.135 254.161 204.929 254.161C220.531 254.161 226.049 244.737 227.486 238.837C227.672 238.837 228.437 239.022 228.437 239.695C228.437 240.842 227.197 245.12 223.302 249.014C219.975 252.341 213.692 255.483 204.836 255.483C186.185 255.483 174.86 242.164 174.86 224.173Z"
      fill="#171717" />
    <path
      d="M236.713 224.173C236.713 206.473 248.514 192.586 266.597 192.586C284.68 192.586 296.191 206.287 296.191 223.988C296.191 241.688 284.576 255.483 266.412 255.483C248.247 255.483 236.725 241.874 236.725 224.173H236.713ZM294.661 223.988C294.661 207.238 283.718 193.919 266.585 193.919C249.453 193.919 238.232 207.342 238.232 224.185C238.232 241.028 249.267 254.161 266.4 254.161C283.533 254.161 294.661 240.842 294.661 223.999V223.988Z"
      fill="#171717" />
    <path
      d="M308.269 254.149V194.672C308.269 193.721 308.652 193.246 309.695 193.246H325.298C340.147 193.246 347.855 200.097 347.855 211.515C347.855 222.933 340.332 229.783 325.495 229.783H309.788V254.149C309.788 254.625 309.602 254.914 309.22 254.914H308.93C308.548 254.914 308.269 254.625 308.269 254.149ZM325.495 228.45C339.393 228.45 346.337 222.168 346.337 211.515C346.337 200.862 339.301 194.579 325.309 194.579H309.8V228.462H325.506L325.495 228.45Z"
      fill="#171717" />
    <path
      d="M359.842 254.149V193.918C359.842 193.443 360.131 193.153 360.502 193.153H360.792C361.175 193.153 361.36 193.443 361.36 193.918V254.149C361.36 254.625 361.175 254.914 360.792 254.914H360.502C360.12 254.914 359.842 254.625 359.842 254.149Z"
      fill="#171717" />
    <path
      d="M436.404 222.259C436.404 240.023 422.003 254.425 404.238 254.425C386.473 254.425 372.072 240.023 372.072 222.259C372.072 204.494 386.473 190.093 404.238 190.093C422.003 190.093 436.404 204.494 436.404 222.259Z"
      fill="#171717" stroke="black" />
    <path
      d="M126.962 163.243V103.197C126.962 102.629 127.438 102.247 128.006 102.247H128.388C129.049 102.247 129.339 102.536 129.721 103.197L153.6 143.258L177.584 103.197C177.966 102.536 178.244 102.247 178.917 102.247H179.299C179.867 102.247 180.25 102.629 180.25 103.197V163.243C180.25 163.718 180.064 164.008 179.682 164.008H179.392C179.009 164.008 178.824 163.718 178.824 163.243V103.962L154.945 143.838C154.759 144.313 154.284 144.696 153.612 144.696C152.939 144.696 152.569 144.313 152.371 143.838L128.481 103.962V163.243C128.481 163.718 128.295 164.008 127.913 164.008H127.53C127.148 164.008 126.962 163.718 126.962 163.243Z"
      fill="#171717" />
    <path
      d="M208.673 163.243V103.012C208.673 102.536 208.963 102.247 209.334 102.247H209.623C210.006 102.247 210.192 102.536 210.192 103.012V163.243C210.192 163.718 210.006 164.008 209.623 164.008H209.334C208.951 164.008 208.673 163.718 208.673 163.243Z"
      fill="#171717" />
    <path
      d="M235.299 133.267C235.299 115.276 247.192 101.679 265.078 101.679C274.213 101.679 280.113 104.913 283.822 108.623C286.674 111.474 288.204 115.091 288.204 116.331C288.204 117.096 287.543 117.282 287.253 117.189C285.26 110.246 278.212 103.012 265.078 103.012C248.05 103.012 236.818 116.053 236.818 133.278C236.818 150.504 247.575 163.255 265.368 163.255C280.971 163.255 286.488 153.831 287.926 147.93C288.111 147.93 288.876 148.116 288.876 148.788C288.876 149.936 287.636 154.213 283.741 158.108C280.414 161.435 274.131 164.576 265.275 164.576C246.624 164.576 235.299 151.257 235.299 133.267Z"
      fill="#171717" />
    <path
      d="M323.675 136.501L352.608 163.15C352.794 163.336 352.423 164.008 351.843 164.008C351.553 164.008 351.182 163.823 350.696 163.347L321.762 136.512H313.961V163.255C313.961 163.73 313.776 164.02 313.393 164.02H313.103C312.721 164.02 312.443 163.73 312.443 163.255V103.777C312.443 102.827 312.825 102.351 313.868 102.351H329.946C344.506 102.351 351.924 108.541 351.924 119.38C351.924 130.218 344.506 136.512 330.329 136.512H323.664L323.675 136.501ZM330.236 135.26C343.648 135.26 350.313 129.267 350.313 119.368C350.313 109.469 343.555 103.661 329.946 103.661H313.961V135.249H330.236V135.26Z"
      fill="#171717" />
    <path
      d="M404.284 139.836C400.575 139.836 397.568 136.83 397.568 133.121C397.568 129.412 400.575 126.405 404.284 126.405C407.993 126.405 410.999 129.412 410.999 133.121C410.999 136.83 407.993 139.836 404.284 139.836Z"
      fill="#171717" />
  </g>
  <path
    d="M166.943 295.191C165.738 295.191 164.798 294.918 164.122 294.372C163.446 293.826 163.104 293.011 163.095 291.928H164.226C164.252 293.444 165.158 294.203 166.943 294.203C167.697 294.203 168.273 294.055 168.672 293.761C169.079 293.466 169.283 293.037 169.283 292.474C169.283 292.032 169.114 291.689 168.776 291.447C168.447 291.195 167.866 290.979 167.034 290.797L166.215 290.615C165.279 290.398 164.577 290.086 164.109 289.679C163.641 289.263 163.407 288.682 163.407 287.937C163.407 287.2 163.693 286.615 164.265 286.182C164.837 285.74 165.604 285.519 166.566 285.519C167.216 285.519 167.779 285.597 168.256 285.753C168.741 285.909 169.118 286.13 169.387 286.416C169.656 286.693 169.851 286.996 169.972 287.326C170.102 287.655 170.171 288.019 170.18 288.418H169.062C169.01 287.759 168.793 287.278 168.412 286.975C168.039 286.663 167.424 286.507 166.566 286.507C165.916 286.507 165.413 286.632 165.058 286.884C164.711 287.135 164.538 287.486 164.538 287.937C164.538 288.387 164.69 288.738 164.993 288.99C165.288 289.241 165.86 289.462 166.709 289.653L167.528 289.835C168.551 290.06 169.287 290.385 169.738 290.81C170.189 291.226 170.414 291.78 170.414 292.474C170.414 293.314 170.106 293.977 169.491 294.463C168.876 294.948 168.026 295.191 166.943 295.191ZM177.839 289.705V285.727H178.931V294.983H177.839V290.719H172.678V294.983H171.586V285.727H172.678V289.705H177.839ZM181.717 294.983H180.625V285.727H181.717V294.983ZM189.529 285.727V286.715H184.498V289.666H189.009V290.654H184.498V294.983H183.406V285.727H189.529ZM190.044 285.727H197.467V286.715H194.321V294.983H193.19V286.715H190.044V285.727ZM199.541 294.983H198.449V285.727H199.541V294.983ZM207.509 288.847V285.727H208.588V294.983H207.262L204.194 290.212C203.31 288.808 202.668 287.763 202.27 287.079C202.296 288.292 202.309 289.887 202.309 291.863V294.983H201.23V285.727H202.556L205.624 290.498C206.508 291.902 207.149 292.946 207.548 293.631C207.522 292.417 207.509 290.823 207.509 288.847ZM214.494 291.213V290.225H218.433V294.983H217.536L217.302 293.735C216.617 294.705 215.607 295.191 214.273 295.191C212.947 295.191 211.889 294.744 211.101 293.852C210.295 292.968 209.892 291.802 209.892 290.355C209.892 288.916 210.29 287.746 211.088 286.845C211.876 285.961 212.942 285.519 214.286 285.519C215.386 285.519 216.296 285.813 217.016 286.403C217.735 286.992 218.173 287.776 218.329 288.756H217.198C217.085 288.071 216.756 287.525 216.21 287.118C215.681 286.719 215.04 286.52 214.286 286.52C213.298 286.52 212.509 286.866 211.92 287.56C211.33 288.253 211.036 289.185 211.036 290.355C211.036 291.525 211.33 292.456 211.92 293.15C212.509 293.843 213.298 294.19 214.286 294.19C215.161 294.19 215.906 293.908 216.522 293.345C217.137 292.781 217.445 292.071 217.445 291.213H214.494ZM225.862 295.191C224.657 295.191 223.717 294.918 223.041 294.372C222.365 293.826 222.023 293.011 222.014 291.928H223.145C223.171 293.444 224.077 294.203 225.862 294.203C226.616 294.203 227.192 294.055 227.591 293.761C227.998 293.466 228.202 293.037 228.202 292.474C228.202 292.032 228.033 291.689 227.695 291.447C227.366 291.195 226.785 290.979 225.953 290.797L225.134 290.615C224.198 290.398 223.496 290.086 223.028 289.679C222.56 289.263 222.326 288.682 222.326 287.937C222.326 287.2 222.612 286.615 223.184 286.182C223.756 285.74 224.523 285.519 225.485 285.519C226.135 285.519 226.698 285.597 227.175 285.753C227.66 285.909 228.037 286.13 228.306 286.416C228.575 286.693 228.77 286.996 228.891 287.326C229.021 287.655 229.09 288.019 229.099 288.418H227.981C227.929 287.759 227.712 287.278 227.331 286.975C226.958 286.663 226.343 286.507 225.485 286.507C224.835 286.507 224.332 286.632 223.977 286.884C223.63 287.135 223.457 287.486 223.457 287.937C223.457 288.387 223.609 288.738 223.912 288.99C224.207 289.241 224.779 289.462 225.628 289.653L226.447 289.835C227.47 290.06 228.206 290.385 228.657 290.81C229.108 291.226 229.333 291.78 229.333 292.474C229.333 293.314 229.025 293.977 228.41 294.463C227.795 294.948 226.945 295.191 225.862 295.191ZM234.392 295.191C233.135 295.191 232.108 294.753 231.311 293.878C230.514 293.002 230.115 291.828 230.115 290.355C230.115 288.881 230.514 287.707 231.311 286.832C232.108 285.956 233.135 285.519 234.392 285.519C235.389 285.519 236.238 285.792 236.94 286.338C237.642 286.875 238.106 287.664 238.331 288.704H237.226C236.836 287.248 235.891 286.52 234.392 286.52C233.447 286.52 232.689 286.858 232.117 287.534C231.545 288.218 231.259 289.159 231.259 290.355C231.259 291.551 231.545 292.487 232.117 293.163C232.689 293.847 233.447 294.19 234.392 294.19C235.103 294.19 235.735 293.969 236.29 293.527C236.836 293.102 237.17 292.465 237.291 291.616H238.383C238.262 292.768 237.824 293.648 237.07 294.255C236.307 294.879 235.415 295.191 234.392 295.191ZM247.108 294.983H245.951L244.872 292.292H240.66L239.594 294.983H238.45L242.142 285.727H243.364L247.108 294.983ZM241.089 291.2L241.05 291.304H244.482L244.43 291.187C244.213 290.658 243.65 289.232 242.74 286.91C242.125 288.556 241.574 289.986 241.089 291.2ZM248.99 285.727V293.995H253.644V294.983H247.898V285.727H248.99ZM261.188 285.727V286.715H255.845V289.666H260.668V290.654H255.845V293.995H261.136V294.983H254.753V285.727H261.188ZM265.687 295.191C264.483 295.191 263.542 294.918 262.866 294.372C262.19 293.826 261.848 293.011 261.839 291.928H262.97C262.996 293.444 263.902 294.203 265.687 294.203C266.441 294.203 267.018 294.055 267.416 293.761C267.824 293.466 268.027 293.037 268.027 292.474C268.027 292.032 267.858 291.689 267.52 291.447C267.191 291.195 266.61 290.979 265.778 290.797L264.959 290.615C264.023 290.398 263.321 290.086 262.853 289.679C262.385 289.263 262.151 288.682 262.151 287.937C262.151 287.2 262.437 286.615 263.009 286.182C263.581 285.74 264.348 285.519 265.31 285.519C265.96 285.519 266.524 285.597 267 285.753C267.486 285.909 267.863 286.13 268.131 286.416C268.4 286.693 268.595 286.996 268.716 287.326C268.846 287.655 268.916 288.019 268.924 288.418H267.806C267.754 287.759 267.538 287.278 267.156 286.975C266.784 286.663 266.168 286.507 265.31 286.507C264.66 286.507 264.158 286.632 263.802 286.884C263.456 287.135 263.282 287.486 263.282 287.937C263.282 288.387 263.434 288.738 263.737 288.99C264.032 289.241 264.604 289.462 265.453 289.653L266.272 289.835C267.295 290.06 268.032 290.385 268.482 290.81C268.933 291.226 269.158 291.78 269.158 292.474C269.158 293.314 268.851 293.977 268.235 294.463C267.62 294.948 266.771 295.191 265.687 295.191ZM273.898 294.983H272.806V285.727H273.898V294.983ZM281.865 288.847V285.727H282.944V294.983H281.618L278.55 290.212C277.666 288.808 277.025 287.763 276.626 287.079C276.652 288.292 276.665 289.887 276.665 291.863V294.983H275.586V285.727H276.912L279.98 290.498C280.864 291.902 281.506 292.946 281.904 293.631C281.878 292.417 281.865 290.823 281.865 288.847ZM295.122 294.983H293.965L292.886 292.292H288.674L287.608 294.983H286.464L290.156 285.727H291.378L295.122 294.983ZM289.103 291.2L289.064 291.304H292.496L292.444 291.187C292.227 290.658 291.664 289.232 290.754 286.91C290.138 288.556 289.588 289.986 289.103 291.2ZM304.894 289.705V285.727H305.986V294.983H304.894V290.719H299.733V294.983H298.641V285.727H299.733V289.705H304.894ZM314.115 285.727V286.715H308.772V289.666H313.595V290.654H308.772V293.995H314.063V294.983H307.68V285.727H314.115ZM323.102 294.983H321.945L320.866 292.292H316.654L315.588 294.983H314.444L318.136 285.727H319.358L323.102 294.983ZM317.083 291.2L317.044 291.304H320.476L320.424 291.187C320.207 290.658 319.644 289.232 318.734 286.91C318.119 288.556 317.568 289.986 317.083 291.2ZM321.682 285.727H329.105V286.715H325.959V294.983H324.828V286.715H321.682V285.727ZM331.179 294.983H330.087V285.727H331.179V294.983ZM339.146 288.847V285.727H340.225V294.983H338.899L335.831 290.212C334.947 288.808 334.306 287.763 333.907 287.079C333.933 288.292 333.946 289.887 333.946 291.863V294.983H332.867V285.727H334.193L337.261 290.498C338.145 291.902 338.787 292.946 339.185 293.631C339.159 292.417 339.146 290.823 339.146 288.847ZM346.131 291.213V290.225H350.07V294.983H349.173L348.939 293.735C348.255 294.705 347.245 295.191 345.91 295.191C344.584 295.191 343.527 294.744 342.738 293.852C341.932 292.968 341.529 291.802 341.529 290.355C341.529 288.916 341.928 287.746 342.725 286.845C343.514 285.961 344.58 285.519 345.923 285.519C347.024 285.519 347.934 285.813 348.653 286.403C349.373 286.992 349.81 287.776 349.966 288.756H348.835C348.723 288.071 348.393 287.525 347.847 287.118C347.319 286.719 346.677 286.52 345.923 286.52C344.935 286.52 344.147 286.866 343.557 287.56C342.968 288.253 342.673 289.185 342.673 290.355C342.673 291.525 342.968 292.456 343.557 293.15C344.147 293.843 344.935 294.19 345.923 294.19C346.799 294.19 347.544 293.908 348.159 293.345C348.775 292.781 349.082 292.071 349.082 291.213H346.131ZM363.103 290.29L364.364 285.727H365.495L362.869 294.983H361.647L360.321 290.264C359.948 288.929 359.666 287.885 359.476 287.131C359.285 287.885 359.003 288.929 358.631 290.264L357.305 294.983H356.083L353.457 285.727H354.588L355.849 290.29C356.247 291.702 356.538 292.807 356.72 293.605C357.023 292.443 357.318 291.33 357.604 290.264L358.865 285.727H360.087L361.348 290.264C361.642 291.33 361.937 292.443 362.232 293.605C362.414 292.807 362.704 291.702 363.103 290.29ZM373.409 293.852C372.594 294.744 371.52 295.191 370.185 295.191C368.85 295.191 367.78 294.744 366.974 293.852C366.159 292.976 365.752 291.811 365.752 290.355C365.752 288.907 366.159 287.737 366.974 286.845C367.78 285.961 368.85 285.519 370.185 285.519C371.52 285.519 372.594 285.961 373.409 286.845C374.215 287.746 374.618 288.916 374.618 290.355C374.618 291.802 374.215 292.968 373.409 293.852ZM367.793 293.15C368.391 293.843 369.188 294.19 370.185 294.19C371.182 294.19 371.979 293.843 372.577 293.15C373.175 292.465 373.474 291.533 373.474 290.355C373.474 289.176 373.175 288.244 372.577 287.56C371.979 286.866 371.182 286.52 370.185 286.52C369.188 286.52 368.391 286.866 367.793 287.56C367.195 288.244 366.896 289.176 366.896 290.355C366.896 291.533 367.195 292.465 367.793 293.15ZM382.716 292.305L382.807 293.8C382.851 294.32 382.963 294.714 383.145 294.983H382.014C381.824 294.705 381.724 294.294 381.715 293.748L381.676 292.76C381.65 292.136 381.512 291.694 381.26 291.434C381.009 291.165 380.597 291.031 380.025 291.031H377.009V294.983H375.917V285.727H379.83C380.784 285.727 381.542 285.948 382.105 286.39C382.677 286.832 382.963 287.451 382.963 288.249C382.963 288.812 382.825 289.289 382.547 289.679C382.279 290.06 381.91 290.329 381.442 290.485C382.222 290.727 382.647 291.334 382.716 292.305ZM377.009 290.043H379.96C380.541 290.043 380.996 289.895 381.325 289.601C381.663 289.297 381.832 288.868 381.832 288.314C381.832 287.785 381.655 287.386 381.299 287.118C380.953 286.849 380.463 286.715 379.83 286.715H377.009V290.043ZM385.414 285.727V293.995H390.068V294.983H384.322V285.727H385.414ZM391.177 285.727H394.297C395.701 285.727 396.81 286.134 397.625 286.949C398.431 287.763 398.834 288.899 398.834 290.355C398.834 291.793 398.431 292.924 397.625 293.748C396.802 294.571 395.692 294.983 394.297 294.983H391.177V285.727ZM392.269 293.995H394.297C395.389 293.995 396.225 293.674 396.806 293.033C397.395 292.391 397.69 291.499 397.69 290.355C397.69 289.211 397.395 288.318 396.806 287.677C396.225 287.035 395.389 286.715 394.297 286.715H392.269V293.995Z"
    fill="black" />
  <path
    d="M127.462 72.5809V12.5355C127.462 11.9675 127.938 11.585 128.506 11.585H128.888C129.549 11.585 129.839 11.8748 130.221 12.5355L154.112 52.5967L178.084 12.5355C178.466 11.8748 178.744 11.585 179.417 11.585H179.799C180.367 11.585 180.75 11.9675 180.75 12.5355V72.5809C180.75 73.0561 180.564 73.3459 180.182 73.3459H179.892C179.509 73.3459 179.324 73.0561 179.324 72.5809V13.3005L155.445 53.1762C155.259 53.6515 154.784 54.034 154.112 54.034C153.439 54.034 153.069 53.6515 152.871 53.1762L128.981 13.3005V72.5809C128.981 73.0561 128.795 73.3459 128.413 73.3459H128.03C127.648 73.3459 127.462 73.0561 127.462 72.5809Z"
    fill="#171717" />
  <path
    d="M217.739 12.2575C217.924 11.7822 218.214 11.4924 218.886 11.4924C219.651 11.4924 219.93 11.7822 220.127 12.2575L245.061 72.8709C244.968 73.3461 243.82 73.8214 243.16 72.3956L233.828 49.5598H204.049L194.625 72.3956C194.057 73.9141 192.909 73.3461 192.816 72.8709L217.739 12.2575ZM233.249 48.2268L218.886 13.1153L204.513 48.2268H233.249Z"
    fill="#171717" />
  <path
    d="M253.685 42.6052C253.685 24.6147 265.578 11.0176 283.464 11.0176C292.598 11.0176 298.499 14.2517 302.208 17.9611C305.06 20.8126 306.59 24.4293 306.59 25.6696C306.59 26.4346 305.929 26.6201 305.639 26.5274C303.645 19.5839 296.598 12.3506 283.464 12.3506C266.436 12.3506 255.203 25.3914 255.203 42.6168C255.203 59.8421 265.96 72.5931 283.754 72.5931C299.356 72.5931 304.874 63.169 306.311 57.2688C306.497 57.2688 307.262 57.4542 307.262 58.1266C307.262 59.2741 306.022 63.5515 302.127 67.4463C298.8 70.7732 292.517 73.9146 283.661 73.9146C265.01 73.9146 253.685 60.5956 253.685 42.6052Z"
    fill="#171717" />
  <path
    d="M333.112 45.8519L362.045 72.5014C362.231 72.6868 361.86 73.3592 361.28 73.3592C360.99 73.3592 360.619 73.1737 360.132 72.6984L331.199 45.8635H323.398V72.6057C323.398 73.081 323.213 73.3708 322.83 73.3708H322.54C322.158 73.3708 321.88 73.081 321.88 72.6057V13.1167C321.88 12.1662 322.262 11.6909 323.305 11.6909H339.383C353.942 11.6909 361.361 17.8809 361.361 28.7192C361.361 39.5575 353.942 45.8519 339.766 45.8519H333.1H333.112ZM339.673 44.6116C353.096 44.6116 359.75 38.6186 359.75 28.7192C359.75 18.8199 352.992 13.0124 339.383 13.0124H323.398V44.6116H339.673Z"
    fill="#171717" />
  <path
    d="M404.737 76.3488C422.778 76.3488 437.403 61.7239 437.403 43.6832C437.403 25.6425 422.778 11.0176 404.737 11.0176C386.697 11.0176 372.072 25.6425 372.072 43.6832C372.072 61.7239 386.697 76.3488 404.737 76.3488Z"
    fill="#171717" />
  <path
    d="M129.027 249.49C126.269 246.824 125.596 243.879 125.596 242.824C125.596 242.059 126.164 241.781 126.547 241.781C127.312 246.916 133.015 254.15 146.914 254.15C157.856 254.15 165.275 248.249 165.275 239.301C165.275 228.833 156.233 226.457 146.241 224.081C136.249 221.704 127.022 219.224 127.022 208.571C127.022 198.764 135.113 192.586 145.766 192.586C153.567 192.586 158.61 195.055 161.658 198.103C163.756 200.201 164.892 202.763 164.892 203.911C164.892 204.572 164.232 204.954 163.849 204.954C162.609 199.912 157.381 193.919 145.766 193.919C135.959 193.919 128.541 199.436 128.541 208.571C128.541 217.705 137.014 220.464 146.902 222.747C157.184 225.031 166.793 227.79 166.793 239.301C166.793 248.91 158.702 255.483 146.902 255.483C138.057 255.483 132.435 252.909 129.016 249.49H129.027Z"
    fill="#171717" />
  <path
    d="M175.36 224.173C175.36 206.183 187.253 192.586 205.139 192.586C214.273 192.586 220.174 195.82 223.883 199.529C226.735 202.381 228.265 205.997 228.265 207.238C228.265 208.003 227.604 208.188 227.314 208.095C225.32 201.152 218.273 193.919 205.139 193.919C188.111 193.919 176.878 206.959 176.878 224.185C176.878 241.41 187.635 254.161 205.429 254.161C221.031 254.161 226.549 244.737 227.986 238.837C228.172 238.837 228.937 239.022 228.937 239.695C228.937 240.842 227.697 245.12 223.802 249.014C220.475 252.341 214.192 255.483 205.336 255.483C186.685 255.483 175.36 242.164 175.36 224.173Z"
    fill="#171717" />
  <path
    d="M237.213 224.173C237.213 206.473 249.014 192.586 267.097 192.586C285.18 192.586 296.691 206.287 296.691 223.988C296.691 241.688 285.076 255.483 266.912 255.483C248.747 255.483 237.225 241.874 237.225 224.173H237.213ZM295.161 223.988C295.161 207.238 284.218 193.919 267.085 193.919C249.953 193.919 238.732 207.342 238.732 224.185C238.732 241.028 249.767 254.161 266.9 254.161C284.033 254.161 295.161 240.842 295.161 223.999V223.988Z"
    fill="#171717" />
  <path
    d="M308.769 254.149V194.672C308.769 193.721 309.152 193.246 310.195 193.246H325.798C340.647 193.246 348.355 200.097 348.355 211.515C348.355 222.933 340.832 229.783 325.995 229.783H310.288V254.149C310.288 254.625 310.102 254.914 309.72 254.914H309.43C309.048 254.914 308.769 254.625 308.769 254.149ZM325.995 228.45C339.893 228.45 346.837 222.168 346.837 211.515C346.837 200.862 339.801 194.579 325.809 194.579H310.3V228.462H326.006L325.995 228.45Z"
    fill="#171717" />
  <path
    d="M360.342 254.149V193.918C360.342 193.443 360.631 193.153 361.002 193.153H361.292C361.675 193.153 361.86 193.443 361.86 193.918V254.149C361.86 254.625 361.675 254.914 361.292 254.914H361.002C360.62 254.914 360.342 254.625 360.342 254.149Z"
    fill="#171717" />
  <path
    d="M436.904 222.259C436.904 240.023 422.503 254.425 404.738 254.425C386.973 254.425 372.572 240.023 372.572 222.259C372.572 204.494 386.973 190.093 404.738 190.093C422.503 190.093 436.904 204.494 436.904 222.259Z"
    fill="#171717" stroke="black" />
  <path
    d="M127.462 163.243V103.197C127.462 102.629 127.938 102.247 128.506 102.247H128.888C129.549 102.247 129.839 102.536 130.221 103.197L154.1 143.258L178.084 103.197C178.466 102.536 178.744 102.247 179.417 102.247H179.799C180.367 102.247 180.75 102.629 180.75 103.197V163.243C180.75 163.718 180.564 164.008 180.182 164.008H179.892C179.509 164.008 179.324 163.718 179.324 163.243V103.962L155.445 143.838C155.259 144.313 154.784 144.696 154.112 144.696C153.439 144.696 153.069 144.313 152.871 143.838L128.981 103.962V163.243C128.981 163.718 128.795 164.008 128.413 164.008H128.03C127.648 164.008 127.462 163.718 127.462 163.243Z"
    fill="#171717" />
  <path
    d="M209.173 163.243V103.012C209.173 102.536 209.463 102.247 209.834 102.247H210.123C210.506 102.247 210.692 102.536 210.692 103.012V163.243C210.692 163.718 210.506 164.008 210.123 164.008H209.834C209.451 164.008 209.173 163.718 209.173 163.243Z"
    fill="#171717" />
  <path
    d="M235.799 133.267C235.799 115.276 247.692 101.679 265.578 101.679C274.713 101.679 280.613 104.913 284.322 108.623C287.174 111.474 288.704 115.091 288.704 116.331C288.704 117.096 288.043 117.282 287.753 117.189C285.76 110.246 278.712 103.012 265.578 103.012C248.55 103.012 237.318 116.053 237.318 133.278C237.318 150.504 248.075 163.255 265.868 163.255C281.471 163.255 286.988 153.831 288.426 147.93C288.611 147.93 289.376 148.116 289.376 148.788C289.376 149.936 288.136 154.213 284.241 158.108C280.914 161.435 274.631 164.576 265.775 164.576C247.124 164.576 235.799 151.257 235.799 133.267Z"
    fill="#171717" />
  <path
    d="M324.175 136.501L353.108 163.15C353.294 163.336 352.923 164.008 352.343 164.008C352.053 164.008 351.682 163.823 351.196 163.347L322.262 136.512H314.461V163.255C314.461 163.73 314.276 164.02 313.893 164.02H313.603C313.221 164.02 312.943 163.73 312.943 163.255V103.777C312.943 102.827 313.325 102.351 314.368 102.351H330.446C345.006 102.351 352.424 108.541 352.424 119.38C352.424 130.218 345.006 136.512 330.829 136.512H324.164L324.175 136.501ZM330.736 135.26C344.148 135.26 350.813 129.267 350.813 119.368C350.813 109.469 344.055 103.661 330.446 103.661H314.461V135.249H330.736V135.26Z"
    fill="#171717" />
  <path
    d="M404.784 139.836C401.075 139.836 398.068 136.83 398.068 133.121C398.068 129.412 401.075 126.405 404.784 126.405C408.493 126.405 411.499 129.412 411.499 133.121C411.499 136.83 408.493 139.836 404.784 139.836Z"
    fill="#171717" />
  <defs>
    <filter id="filter0_f_392_127" x="114.096" y="0.0175781" width="333.807" height="306.173"
      filterUnits="userSpaceOnUse" color-interpolation-filters="sRGB">
      <feFlood flood-opacity="0" result="BackgroundImageFix" />
      <feBlend mode="normal" in="SourceGraphic" in2="BackgroundImageFix" result="shape" />
      <feGaussianBlur stdDeviation="5.5" result="effect1_foregroundBlur_392_127" />
    </filter>
  </defs>
</svg>
  